<?xml version="1.0" encoding="UTF-8" standalone="no"?>
<!-- Created with Inkscape (http://www.inkscape.org/) -->

<svg
   width="512"
   height="512"
   viewBox="0 0 135.46666 135.46667"
   version="1.1"
   id="svg5"
   xml:space="preserve"
   inkscape:version="1.2.2 (b0a8486541, 2022-12-01)"
   sodipodi:docname="samizday.svg"
   xmlns:inkscape="http://www.inkscape.org/namespaces/inkscape"
   xmlns:sodipodi="http://sodipodi.sourceforge.net/DTD/sodipodi-0.dtd"
   xmlns="http://www.w3.org/2000/svg"
   xmlns:svg="http://www.w3.org/2000/svg"><sodipodi:namedview
     id="namedview7"
     pagecolor="#ffffff"
     bordercolor="#000000"
     borderopacity="0.25"
     inkscape:showpageshadow="2"
     inkscape:pageopacity="0.0"
     inkscape:pagecheckerboard="0"
     inkscape:deskcolor="#d1d1d1"
     inkscape:document-units="mm"
     showgrid="false"
     inkscape:zoom="1.1893044"
     inkscape:cx="80.719452"
     inkscape:cy="321.61657"
     inkscape:window-width="1920"
     inkscape:window-height="1043"
     inkscape:window-x="0"
     inkscape:window-y="0"
     inkscape:window-maximized="1"
     inkscape:current-layer="layer1" /><defs
     id="defs2" /><g
     inkscape:label="Layer 1"
     inkscape:groupmode="layer"
     id="layer1"
     transform="matrix(1.0341791,0,0,1.0341791,-5.112326,-11.417371)"><g
       id="g2783"><path
         style="fill:#b0482c;stroke-width:0.418155"
         d="m 8.1329076,107.02438 c 0,-0.0904 0.2822548,-0.27265 0.627233,-0.40503 0.3449782,-0.13238 0.6272331,-0.0584 0.6272331,0.16434 0,0.22277 -0.2822549,0.40503 -0.6272331,0.40503 -0.3449782,0 -0.627233,-0.074 -0.627233,-0.16434 z m 1.8816994,-0.57765 c 0.229985,-0.2339 2.958449,-1.19442 6.063253,-2.13449 16.545187,-5.00953 33.036365,-12.134341 42.860925,-18.517529 5.996586,-3.896091 9.665247,-7.303455 14.825343,-13.769429 4.87243,-6.105507 9.714724,-10.819184 14.954867,-14.557648 4.185074,-2.985755 11.746865,-7.044994 16.844115,-9.042087 2.18486,-0.856022 4.03698,-1.612925 4.11583,-1.682005 0.0789,-0.06908 -0.5327,-1.699634 -1.359,-3.623458 -1.42569,-3.319338 -1.7664,-4.508839 -1.29146,-4.508839 0.1757,0 9.24729,2.062789 25.20071,5.730388 1.67217,0.384423 2.98936,0.808675 2.92709,0.94279 -0.68477,1.474825 -16.10123,23.787005 -16.38066,23.707669 -0.20764,-0.05896 -1.01591,-1.783997 -1.79614,-3.833423 -0.78023,-2.049425 -1.49997,-3.807593 -1.59941,-3.907034 -0.21631,-0.216308 -8.42692,3.247101 -12.50019,5.272838 -6.314513,3.140368 -14.315092,8.604751 -20.315317,13.875327 -10.30339,9.050463 -17.773501,13.392496 -29.851802,17.351474 -5.228364,1.713734 -4.855093,1.636493 -4.855093,1.004647 0,-0.268313 0.114135,-0.373709 0.253636,-0.234213 0.139497,0.139501 0.468794,0.07346 0.731772,-0.146747 0.262974,-0.220209 2.736174,-1.500178 5.496,-2.844376 9.47226,-4.613546 16.067122,-9.863834 19.602475,-15.605884 1.764967,-2.866627 1.934212,-2.947774 -3.038647,1.456928 -10.116198,8.960413 -30.367973,18.175122 -51.061646,23.233431 -8.28628,2.02547 -10.4056459,2.42052 -9.826651,1.83167 z M 86.262826,72.757338 c 3.657542,-2.811191 10.475076,-6.955082 15.915784,-9.674062 4.99494,-2.496203 15.21897,-6.539995 15.56414,-6.155903 0.14422,0.16048 0.58546,1.287902 0.98053,2.505374 0.57421,1.76952 0.83117,2.119926 1.28088,1.746693 0.71085,-0.58995 8.94293,-13.017565 8.98727,-13.567686 0.0181,-0.22439 -3.64644,-1.275491 -8.1434,-2.335782 -6.26066,-1.476139 -8.17628,-1.793665 -8.17628,-1.355275 0,0.314888 0.46855,1.497172 1.04123,2.627291 0.57267,1.130123 0.90197,2.134093 0.73177,2.231047 -0.1702,0.09695 -1.06214,0.412406 -1.98208,0.701012 -0.91994,0.288603 -3.46023,1.27703 -5.6451,2.196499 -10.923522,4.597025 -17.416338,8.854578 -24.775701,16.246243 -5.45814,5.4821 -7.372706,8.211559 -2.772554,3.95263 3.219131,-2.980352 7.395508,-5.927264 12.494666,-8.816425 4.223725,-2.393141 9.824619,-4.86617 10.191039,-4.499757 0.12122,0.121227 -1.71164,1.380787 -4.073024,2.799023 -8.056633,4.838773 -13.113704,8.952664 -16.897475,13.745979 -3.753822,4.755367 -3.923815,5.366029 -0.713619,2.563481 1.606494,-1.402489 4.302856,-3.61216 5.991924,-4.910382 z M 39.391493,106.10996 c -0.138409,-0.13841 3.732685,-1.61615 8.602431,-3.28386 16.508038,-5.653415 25.6402,-10.460885 33.212278,-17.48403 2.707489,-2.511215 3.616049,-2.240802 1.491979,0.444056 C 77.273505,92.643009 71.120629,96.90987 61.52383,100.47 c -4.497901,1.66859 -13.3607,4.14325 -18.056794,5.04179 -1.379912,0.26404 -2.804798,0.56326 -3.16641,0.66494 -0.361617,0.10168 -0.770727,0.0716 -0.909133,-0.0668 z"
         id="path2789"
         inkscape:label="arrow"
         sodipodi:nodetypes="ssssssssssscssssssssssssssssssssssssssssscsssssssscsssssscc" /><path
         style="fill:#525350;stroke-width:0.418155"
         d="m 25.969404,125.81393 c -1.994459,-0.71113 -3.550565,-2.11216 -4.300339,-3.8718 -0.878444,-2.06162 -0.698219,-7.32132 0.382182,-11.15354 l 0.93027,-3.29969 1.87965,-0.5619 c 1.03381,-0.30904 1.9089,-0.56475 1.944648,-0.56824 0.03575,-0.003 -0.388512,1.64014 -0.942794,3.65251 -0.988636,3.58932 -0.992989,3.67873 -0.228969,4.70425 l 0.778823,1.04539 41.527102,0.10658 c 45.120723,0.1158 43.477303,0.19584 43.477303,-2.1176 0,-0.738 -4.19885,-17.380084 -5.26885,-20.882989 -0.20606,-0.674618 -1.15591,-0.731771 -12.161275,-0.731771 H 82.049404 l 1.407507,-1.637225 1.407507,-1.637229 10.349345,-0.03538 10.349347,-0.03541 v -5.406151 c 0,-7.178506 0.11927,-7.06144 -7.380527,-7.244173 l -4.244361,-0.103414 2.123999,-1.463544 c 1.684778,-1.160896 2.64863,-1.506781 4.660999,-1.672622 2.44111,-0.201174 2.56865,-0.269752 3.37482,-1.814601 0.79506,-1.523549 2.3079,-2.737877 3.45131,-2.770288 0.7231,-0.02049 0.66275,2.185757 -0.11042,4.036211 -0.55838,1.336399 -0.56026,1.595723 -0.0159,2.197189 1.52678,1.687073 1.90352,3.649292 1.90352,9.914384 v 6.153737 l 3.03163,11.526756 c 2.76057,10.49619 3.03162,11.88859 3.03162,15.57379 0,3.43552 -0.13027,4.22141 -0.86215,5.2011 -1.24567,1.66747 -2.73446,2.67112 -4.60623,3.10524 -0.92623,0.21481 -19.20608,0.37677 -41.992252,0.37204 -33.102266,-0.007 -40.640842,-0.11137 -41.959721,-0.58161 z m 84.528906,-3.88523 c 0.46547,-0.40248 0.96887,-1.15342 1.11867,-1.66877 l 0.27237,-0.937 -43.51514,-0.10839 c -42.790713,-0.10658 -43.515138,-0.0949 -43.515113,0.70097 1.3e-5,0.44515 0.409165,1.24487 0.909225,1.77716 l 0.909203,0.9678 h 41.487243 c 38.910492,0 41.539802,-0.0455 42.333542,-0.73177 z m -66.147193,-9.94316 c -0.44396,-0.44396 -0.53426,-0.92292 -0.295632,-1.56808 l 0.343569,-0.92888 23.882714,-0.10796 23.882718,-0.10796 0.264597,1.05424 c 0.593676,2.36538 1.302131,2.29784 -24.103137,2.29784 -20.379408,0 -23.416604,-0.081 -23.974829,-0.6392 z M 5.9637266,107.32123 c 0.3018538,-0.12079 0.662517,-0.10594 0.8014658,0.033 0.1389489,0.13895 -0.1080262,0.23778 -0.5488289,0.21963 -0.4871301,-0.0201 -0.586212,-0.11915 -0.2526369,-0.25264 z m 32.6161184,-1.25446 c 0.301854,-0.1208 0.662517,-0.10594 0.801466,0.033 0.138949,0.13895 -0.108026,0.23778 -0.548829,0.21962 -0.48713,-0.0201 -0.586212,-0.11915 -0.252637,-0.25263 z m 33.631798,-0.61697 c -0.691374,-0.69137 -0.657704,-1.80706 0.07283,-2.41335 0.926653,-0.76906 5.282469,-0.40129 5.844035,0.49341 0.33365,0.53159 0.333596,0.93196 -1.97e-4,1.46355 -0.575315,0.91622 -5.107266,1.2658 -5.916672,0.45639 z m 10.520157,0.16444 c -0.704863,-0.47076 -0.931558,-1.48192 -0.514176,-2.29345 0.299349,-0.58203 0.92654,-0.73178 3.064949,-0.73178 2.798647,0 3.735278,0.60703 3.22604,2.09078 -0.340646,0.99253 -0.987938,1.24166 -3.22604,1.24166 -1.149927,0 -2.297776,-0.13824 -2.550773,-0.30721 z m 9.536088,-0.34821 c -0.574696,-1.02693 -0.124347,-2.23324 0.932775,-2.49856 0.505228,-0.12681 1.827698,-0.17179 2.938829,-0.1 2.297609,0.14851 3.271723,1.06274 2.478261,2.3259 -0.670429,1.06729 -5.78232,1.28676 -6.349865,0.27262 z M 46.185046,99.243771 c 0.344978,-0.222944 0.909488,-0.405348 1.254466,-0.405348 0.557539,0 0.557539,0.04504 0,0.405348 -0.344978,0.222943 -0.909488,0.405347 -1.254466,0.405347 -0.557539,0 -0.557539,-0.04504 0,-0.405347 z m 31.779808,0.05757 c 0,-0.261648 -0.230746,-0.428684 -0.512767,-0.371188 -0.697864,0.142273 -0.926189,-1.67825 -0.304442,-2.427408 0.590381,-0.711366 4.221826,-0.825657 5.444408,-0.171352 0.818368,0.437976 1.122291,2.251131 0.447271,2.668316 -0.839438,0.518801 -5.07447,0.770535 -5.07447,0.301632 z m 9.513035,-0.06884 c -0.981854,-0.601696 -0.935175,-2.359379 0.07705,-2.901107 0.444851,-0.238077 1.586239,-0.432866 2.536422,-0.432866 0.950183,0 2.091571,0.194789 2.536422,0.432866 0.868416,0.464763 1.106648,2.260799 0.361006,2.721631 -0.818974,0.506152 -4.767962,0.634764 -5.510899,0.179476 z m 10.767501,0.06364 c -1.518097,-0.322904 -1.981956,-1.984373 -0.796101,-2.851494 1.057895,-0.773554 4.553711,-0.701251 5.365941,0.110979 2.07099,2.070989 -0.49186,3.607924 -4.56984,2.740515 z M 25.916909,96.754897 c -0.139957,-0.226456 0.05862,-1.499672 0.441292,-2.829368 0.462563,-1.607323 0.783435,-4.870285 0.957346,-9.735351 0.253937,-7.103765 0.294339,-7.360525 1.381807,-8.781785 0.941247,-1.230159 1.041713,-1.5976 0.628822,-2.299855 -0.270267,-0.459682 -0.586196,-2.152977 -0.702066,-3.762875 l -0.210667,-2.927088 -2.613471,-0.124493 -2.613471,-0.124489 v 2.239883 c 0,2.750049 -0.623829,3.692203 -2.479653,3.744966 -2.2961,0.06528 -2.538212,-0.666695 -2.538212,-7.673778 0,-5.900528 0.04039,-6.196996 0.929355,-6.819641 2.274769,-1.59331 4.08851,-0.162441 4.08851,3.225449 v 2.017688 l 2.613471,-0.124489 2.613471,-0.124494 0.227656,-1.980459 c 0.413669,-3.598615 3.028997,-5.755415 6.979001,-5.755415 h 2.201839 V 42.38227 29.845241 l 20.803229,-0.11217 c 11.441777,-0.06169 22.402674,-0.05651 24.357551,0.0115 l 3.55432,0.123673 5.958714,5.74995 5.958714,5.74995 v 3.177558 3.177554 l -1.672621,0.827551 -1.672622,0.827546 v -2.665548 -2.665548 h -5.143311 c -3.442811,0 -5.309214,-0.165903 -5.645097,-0.501787 -0.333579,-0.33358 -0.501787,-2.155826 -0.501787,-5.43602 V 33.175217 H 62.493106 41.167182 V 48.019732 62.864247 H 59.02365 76.880117 l -1.633273,1.672621 -1.633273,1.672621 H 57.623498 41.633425 l -0.128583,1.777161 c -0.128294,1.773154 -0.132354,1.77716 -1.801204,1.77716 -1.66885,0 -1.67291,-0.0042 -1.801204,-1.77716 l -0.128583,-1.777161 h -2.903044 -2.903043 v 2.243462 c 0,1.636481 0.23448,2.541557 0.86666,3.345243 l 0.866661,1.101781 h 8.730134 c 7.324197,0 8.786649,0.100985 9.081047,0.627049 0.305408,0.545726 1.015164,0.475137 5.472872,-0.5443 4.17411,-0.954582 5.315566,-1.380147 6.168193,-2.299671 0.956292,-1.031313 1.314413,-1.128321 4.165484,-1.128321 1.715583,0 3.117846,0.141128 3.116136,0.313617 -0.0017,0.172489 -0.830453,1.353661 -1.841653,2.624824 l -1.838545,2.311203 -4.589193,0.724805 c -2.524061,0.398644 -5.293265,0.968561 -6.153787,1.266484 l -1.564596,0.541674 1.085762,0.711416 c 0.597172,0.391281 1.963912,1.056361 3.037209,1.477954 l 1.951443,0.766537 -1.458108,1.112151 c -0.801955,0.611682 -1.722599,1.110387 -2.045867,1.108229 -1.205341,-0.008 -4.979624,-2.556376 -6.520184,-4.40231 l -1.594376,-1.910414 -8.296299,0.126701 c -10.473872,0.159957 -9.972265,-0.208133 -9.801298,7.19241 l 0.116916,5.060796 7.526797,0.209078 7.526796,0.209077 -3.433557,1.568083 c -3.237806,1.478685 -3.67204,1.568083 -7.616625,1.568083 -3.707708,0 -4.232255,0.09191 -4.615933,0.808821 -0.238077,0.44485 -0.432866,1.174489 -0.432866,1.621418 0,0.939394 -0.763038,1.680554 -1.914516,1.859629 -0.441924,0.06873 -1.025706,0.26371 -1.297294,0.433297 -0.271592,0.169587 -0.608311,0.123059 -0.748268,-0.103398 z m 11.90503,-36.190496 v -2.299855 h -2.060427 c -1.72786,0 -2.200313,0.177833 -2.927088,1.101781 -0.476664,0.605978 -0.86666,1.640913 -0.86666,2.299854 v 1.198074 h 2.927087 2.927088 z M 90.124051,38.193089 c -1.317135,-1.379912 -2.521911,-2.508932 -2.677285,-2.508932 -0.15537,0 -0.282494,1.12902 -0.282494,2.508932 v 2.508932 h 2.677286 2.677286 z m -6.305022,45.30656 c 0,-0.229986 0.470425,-0.860096 1.045389,-1.400248 0.574963,-0.540152 1.045388,-0.793922 1.045388,-0.563937 0,0.229986 -0.470425,0.860096 -1.045388,1.400248 -0.574964,0.540152 -1.045389,0.793922 -1.045389,0.563937 z M 102.63602,58.055468 c 0.57496,-0.328678 1.32764,-0.597598 1.67262,-0.597598 0.36248,0 0.18598,0.252248 -0.41815,0.597598 -0.57497,0.328679 -1.32765,0.597599 -1.67262,0.597599 -0.36248,0 -0.18598,-0.252248 0.41815,-0.597599 z"
         id="path2787"
         sodipodi:nodetypes="ssscscsscsssscccccsscssssscscsssscsssscssscsssscccssssscsssscsssssssssssssscscsccsssssssssssssssssssssssssssscccssscscccsscccsccccccccccssscccccccccccssscccsscssssssscsscsscscscsscccsssssssccsssccccssscccsssssssssss" /></g></g></svg>
